<?xml version="1.0" encoding="UTF-8"?>
<svg width="20px" height="25px" viewBox="0 0 20 25" version="1.1" xmlns="http://www.w3.org/2000/svg" xmlns:xlink="http://www.w3.org/1999/xlink">
    <!-- Generator: Sketch 64 (93537) - https://sketch.com -->
    <title>user (2)</title>
    <desc>Created with Sketch.</desc>
    <defs>
        <linearGradient x1="12.0583333%" y1="86.1691803%" x2="86.6166667%" y2="0.645229316%" id="linearGradient-1">
            <stop stop-color="#FFBD00" offset="0%"></stop>
            <stop stop-color="#FF8900" offset="100%"></stop>
        </linearGradient>
    </defs>
    <g id="Symbols" stroke="none" stroke-width="1" fill="none" fill-rule="evenodd">
        <g id="User-Account/Active" transform="translate(1.000000, 0.000000)" fill-rule="nonzero">
            <g id="user-(2)">
                <path d="M17.5399129,24 C17.0218757,24 16.6019496,23.5763463 16.6019496,23.0537107 C16.6019496,19.3490353 13.6144897,16.3350565 9.94241049,16.3350565 L8.53546561,16.3350565 C4.86338637,16.3350565 1.87592651,19.3490353 1.87592651,23.0537107 C1.87592651,23.5763463 1.45600036,24 0.937963254,24 C0.419926149,24 0,23.5763463 0,23.0537107 C0,18.3054674 3.82900049,14.4424779 8.53546561,14.4424779 L9.94241049,14.4424779 C14.6488756,14.4424779 18.4778761,18.3054674 18.4778761,23.0537107 C18.4778761,23.5763463 18.05795,24 17.5399129,24 Z" id="Path" stroke="#FFFFFF" stroke-width="0.5" fill="#FF8900"></path>
                <path d="M9.13274336,12.7433628 C5.61939823,12.7433628 2.76106195,9.88502655 2.76106195,6.37168142 C2.76106195,2.85833628 5.61939823,0 9.13274336,0 C12.6460885,0 15.5044248,2.85833628 15.5044248,6.37168142 C15.5044248,9.88502655 12.6460885,12.7433628 9.13274336,12.7433628 Z" id="Shape" fill="url(#linearGradient-1)"></path>
            </g>
        </g>
    </g>
</svg>