<?xml version="1.0" encoding="UTF-8"?>
<svg width="20px" height="26px" viewBox="0 0 20 26" version="1.1" xmlns="http://www.w3.org/2000/svg" xmlns:xlink="http://www.w3.org/1999/xlink">
    <!-- Generator: Sketch 64 (93537) - https://sketch.com -->
    <title>User Account</title>
    <desc>Created with Sketch.</desc>
    <g id="Symbols" stroke="none" stroke-width="1" fill="none" fill-rule="evenodd">
        <g id="Menu" transform="translate(-316.000000, -24.000000)" fill="#979797" stroke="#FFFFFF">
            <g id="Group-3">
                <g id="Group-2">
                    <g id="Group" transform="translate(39.000000, 25.000000)">
                        <g id="User-Account" transform="translate(278.000000, 0.000000)">
                            <g id="user-(2)">
                                <path d="M17.5399129,24 C17.0218757,24 16.6019496,23.5763463 16.6019496,23.0537107 C16.6019496,19.3490353 13.6144897,16.3350565 9.94241049,16.3350565 L8.53546561,16.3350565 C4.86338637,16.3350565 1.87592651,19.3490353 1.87592651,23.0537107 C1.87592651,23.5763463 1.45600036,24 0.937963254,24 C0.419926149,24 0,23.5763463 0,23.0537107 C0,18.3054674 3.82900049,14.4424779 8.53546561,14.4424779 L9.94241049,14.4424779 C14.6488756,14.4424779 18.4778761,18.3054674 18.4778761,23.0537107 C18.4778761,23.5763463 18.05795,24 17.5399129,24 Z" id="Path" stroke-width="0.5" fill-rule="nonzero"></path>
                                <path d="M9.13274336,12.7433628 C5.61939823,12.7433628 2.76106195,9.88502655 2.76106195,6.37168142 C2.76106195,2.85833628 5.61939823,0 9.13274336,0 C12.6460885,0 15.5044248,2.85833628 15.5044248,6.37168142 C15.5044248,9.88502655 12.6460885,12.7433628 9.13274336,12.7433628 Z M9.13274336,1.8879056 C6.66038938,1.8879056 4.64896755,3.89932743 4.64896755,6.37168142 C4.64896755,8.8440354 6.66038938,10.8554572 9.13274336,10.8554572 C11.6050973,10.8554572 13.6165192,8.8440354 13.6165192,6.37168142 C13.6165192,3.89932743 11.6050973,1.8879056 9.13274336,1.8879056 Z" id="Shape" stroke-width="0.5" fill-rule="nonzero"></path>
                            </g>
                        </g>
                    </g>
                </g>
            </g>
        </g>
    </g>
</svg>