<?xml version="1.0" encoding="UTF-8"?>
<svg width="224px" height="224px" viewBox="0 0 224 224" version="1.1" xmlns="http://www.w3.org/2000/svg" xmlns:xlink="http://www.w3.org/1999/xlink">
    <!-- Generator: Sketch 64 (93537) - https://sketch.com -->
    <title>Group</title>
    <desc>Created with Sketch.</desc>
    <defs>
        <circle id="path-1" cx="99" cy="99" r="99"></circle>
        <filter x="-12.1%" y="-7.6%" width="124.2%" height="124.2%" filterUnits="objectBoundingBox" id="filter-2">
            <feMorphology radius="1" operator="dilate" in="SourceAlpha" result="shadowSpreadOuter1"></feMorphology>
            <feOffset dx="0" dy="9" in="shadowSpreadOuter1" result="shadowOffsetOuter1"></feOffset>
            <feGaussianBlur stdDeviation="5.5" in="shadowOffsetOuter1" result="shadowBlurOuter1"></feGaussianBlur>
            <feComposite in="shadowBlurOuter1" in2="SourceAlpha" operator="out" result="shadowBlurOuter1"></feComposite>
            <feColorMatrix values="0 0 0 0 0   0 0 0 0 0   0 0 0 0 0  0 0 0 0.123716128 0" type="matrix" in="shadowBlurOuter1"></feColorMatrix>
        </filter>
    </defs>
    <g id="Screens" stroke="none" stroke-width="1" fill="none" fill-rule="evenodd">
        <g id="Cart/Empty" transform="translate(-76.000000, -136.000000)">
            <g id="Group" transform="translate(89.000000, 140.000000)">
                <g id="Oval">
                    <use fill="black" fill-opacity="1" filter="url(#filter-2)" xlink:href="#path-1"></use>
                    <circle stroke="#EDEDED" stroke-width="10" stroke-linejoin="square" fill="#D9D9D9" fill-rule="evenodd" cx="99" cy="99" r="94"></circle>
                </g>
                <g id="IMP-logosymbol-Copy" transform="translate(37.000000, 49.000000)" fill="#FFFFFF" fill-rule="nonzero">
                    <path d="M111.816418,15.0340909 L17.6331343,15.0340909 L14.1053731,2.07954545 C13.8506153,1.12573974 12.9867823,0.463057246 12.001194,0.465909091 L2.75074627,0.465909091 C1.9451055,0.42473605 1.18243576,0.831890734 0.76728085,1.52479106 C0.352125942,2.21769139 0.352125942,3.08344497 0.76728085,3.7763453 C1.18243576,4.46924563 1.9451055,4.87640031 2.75074627,4.83522727 L10.339403,4.83522727 L13.8671642,17.7954545 L28.9764179,73.2954545 L24.5638806,73.2954545 C21.1318814,73.2112267 17.9239822,74.9973122 16.1832519,77.9615984 C14.4425216,80.9258846 14.4425216,84.6025244 16.1832519,87.5668107 C17.9239822,90.5310969 21.1318814,92.3171824 24.5638806,92.2329545 L29.9179104,92.2329545 C30.9282631,96.4976948 34.7306154,99.5086354 39.1059701,99.5086354 C43.4813249,99.5086354 47.2836772,96.4976948 48.2940299,92.2329545 L80.8152239,92.2329545 C81.8255765,96.4976948 85.6279289,99.5086354 90.0032836,99.5086354 C94.3786383,99.5086354 98.1809907,96.4976948 99.1913433,92.2329545 L104.545373,92.2329545 C105.351014,92.2741276 106.113684,91.8669729 106.528839,91.1740726 C106.943993,90.4811722 106.943993,89.6154187 106.528839,88.9225183 C106.113684,88.229618 105.351014,87.8224633 104.545373,87.8636364 L99.1913433,87.8636364 C98.1809907,83.5988962 94.3786383,80.5879555 90.0032836,80.5879555 C85.6279289,80.5879555 81.8255765,83.5988962 80.8152239,87.8636364 L48.2940299,87.8636364 C47.2836772,83.5988962 43.4813249,80.5879555 39.1059701,80.5879555 C34.7306154,80.5879555 30.9282631,83.5988962 29.9179104,87.8636364 L24.5638806,87.8636364 C22.6545982,88.006499 20.8260621,87.0670004 19.8278563,85.4302754 C18.8296506,83.7935503 18.8296506,81.7348587 19.8278563,80.0981337 C20.8260621,78.4614087 22.6545982,77.5219101 24.5638806,77.6647727 L92.6859701,77.6647727 C104.445569,77.6522671 113.978125,68.1102303 114,56.3295455 L114,17.2215909 C114,16.6414298 113.769945,16.0850307 113.360444,15.6747948 C112.950943,15.264559 112.39554,15.0340909 111.816418,15.0340909 L111.816418,15.0340909 Z M90.0032836,84.9659091 C92.0678521,84.9659091 93.9291298,86.2118066 94.719206,88.1226415 C95.5092821,90.0334765 95.0725647,92.2329427 93.6126943,93.6954324 C92.1528239,95.1579222 89.9572971,95.5954232 88.0498846,94.8039294 C86.142472,94.0124357 84.898806,92.1478183 84.898806,90.0795455 C84.898806,87.2553621 87.1841584,84.9659091 90.0032836,84.9659091 Z M39.1059701,84.9658301 C41.1705386,84.9658301 43.0318164,86.2118066 43.8218925,88.1226415 C44.6119687,90.0334765 44.1752513,92.2329427 42.7153809,93.6954324 C41.2555105,95.1579222 39.0599837,95.5954232 37.1525711,94.8039294 C35.2451586,94.0124357 34.0014925,92.1478183 34.0014925,90.0795455 C34.0014925,88.7183882 34.5431542,87.4133909 35.5065716,86.4535772 C36.469989,85.4937635 37.77563,84.9583471 39.1343284,84.9658301 L39.1059701,84.9658301 Z M109.638507,56.3295455 C109.616646,65.6971241 102.036788,73.2829608 92.6859701,73.2954545 L33.5023881,73.2954545 L18.8241791,19.3863636 L109.638507,19.3863636 L109.638507,56.3295455 Z" id="Shape"></path>
                    <path d="M80.6961194,29.75 C86.5214016,33.8412619 89.9898277,40.520721 89.9898277,47.6477273 C89.9898277,54.7747336 86.5214016,61.4541926 80.6961194,65.5454545 L80.6961194,29.75 Z" id="Path"></path>
                    <path d="M69.2564179,23.2329545 C72.5137099,23.3941487 75.6937502,24.2832844 78.5635821,25.8352273 L78.5635821,64.2897727 C75.6933555,65.8399157 72.513299,66.7271146 69.2564179,66.8863636 L69.2564179,23.2329545 Z" id="Path"></path>
                    <path d="M67.1238806,69.4829545 C63.8665886,69.3217604 60.6865483,68.4326247 57.8167164,66.8806818 L57.8167164,28.4090909 C60.686943,26.858948 63.8669995,25.9717491 67.1238806,25.8125 L67.1238806,69.4829545 Z" id="Path"></path>
                    <path d="M55.6841791,62.9659091 C49.8588969,58.8746472 46.3904708,52.1951881 46.3904708,45.0681818 C46.3904708,37.9411755 49.8588969,31.2617164 55.6841791,27.1704545 L55.6841791,62.9659091 Z" id="Path"></path>
                </g>
            </g>
        </g>
    </g>
</svg>