<?xml version="1.0" encoding="UTF-8"?>
<svg width="28px" height="24px" viewBox="0 0 28 24" version="1.1" xmlns="http://www.w3.org/2000/svg" xmlns:xlink="http://www.w3.org/1999/xlink">
    <!-- Generator: Sketch 64 (93537) - https://sketch.com -->
    <title>IMP-logosymbol Copy</title>
    <desc>Created with Sketch.</desc>
    <defs>
        <linearGradient x1="12.1461628%" y1="77.438591%" x2="86.6281145%" y2="12.5836475%" id="linearGradient-1">
            <stop stop-color="#FFBD00" offset="0%"></stop>
            <stop stop-color="#FF8900" offset="100%"></stop>
        </linearGradient>
    </defs>
    <g id="Symbols" stroke="none" stroke-width="1" fill="none" fill-rule="evenodd">
        <g id="Cart/active" fill-rule="nonzero">
            <g id="IMP-logosymbol-Copy">
                <path d="M26.9045995,3.61093433 L4.2427796,3.61093433 L3.39395075,0.499471642 C3.33265243,0.270383642 3.12480209,0.111218518 2.88765572,0.111903483 L0.661868159,0.111903483 C0.468019682,0.102014415 0.284510639,0.199806083 0.184618541,0.366229021 C0.0847264436,0.53265196 0.0847264436,0.740591324 0.184618541,0.907014262 C0.284510639,1.0734372 0.468019682,1.17122887 0.661868159,1.1613398 L2.48780547,1.1613398 L3.33663433,4.27416716 L6.97213284,17.6043284 L5.91041443,17.6043284 C5.08462726,17.5840983 4.31276168,18.0130858 3.89391753,18.7250572 C3.47507339,19.4370286 3.47507339,20.3200953 3.89391753,21.0320667 C4.31276168,21.7440381 5.08462726,22.1730256 5.91041443,22.1527955 L7.19866915,22.1527955 C7.44177418,23.177114 8.35667352,23.900291 9.40944527,23.900291 C10.462217,23.900291 11.3771164,23.177114 11.6202214,22.1527955 L19.4452771,22.1527955 C19.6883821,23.177114 20.6032815,23.900291 21.6560532,23.900291 C22.708825,23.900291 23.6237243,23.177114 23.8668294,22.1527955 L25.1550841,22.1527955 C25.3489326,22.1626846 25.5324416,22.0648929 25.6323337,21.89847 C25.7322258,21.732047 25.7322258,21.5241077 25.6323337,21.3576847 C25.5324416,21.1912618 25.3489326,21.0934701 25.1550841,21.1033592 L23.8668294,21.1033592 C23.6237243,20.0790407 22.708825,19.3558637 21.6560532,19.3558637 C20.6032815,19.3558637 19.6883821,20.0790407 19.4452771,21.1033592 L11.6202214,21.1033592 C11.3771164,20.0790407 10.462217,19.3558637 9.40944527,19.3558637 C8.35667352,19.3558637 7.44177418,20.0790407 7.19866915,21.1033592 L5.91041443,21.1033592 C5.45101428,21.1376724 5.01104283,20.9120207 4.77086051,20.5189071 C4.5306782,20.1257934 4.5306782,19.6313305 4.77086051,19.2382168 C5.01104283,18.8451032 5.45101428,18.6194515 5.91041443,18.6537647 L22.3015453,18.6537647 C25.1310698,18.650761 27.4247367,16.3589252 27.43,13.529404 L27.43,4.13633483 C27.43,3.99698995 27.3746455,3.86335228 27.2761138,3.76482057 C27.1775821,3.66628886 27.0439444,3.61093433 26.9045995,3.61093433 L26.9045995,3.61093433 Z M21.6560532,20.4073741 C22.1528174,20.4073741 22.6006669,20.7066176 22.7907703,21.1655679 C22.9808738,21.6245181 22.8757934,22.1527927 22.5245281,22.504058 C22.1732628,22.8553233 21.6449882,22.9604036 21.186038,22.7703002 C20.7270878,22.5801968 20.4278443,22.1323472 20.4278443,21.6355831 C20.4278443,20.957262 20.9777322,20.4073741 21.6560532,20.4073741 Z M9.40944527,20.4073551 C9.90620942,20.4073551 10.354059,20.7066176 10.5441624,21.1655679 C10.7342658,21.6245181 10.6291855,22.1527927 10.2779202,22.504058 C9.92665485,22.8553233 9.39838029,22.9604036 8.93943005,22.7703002 C8.48047982,22.5801968 8.18123632,22.1323472 8.18123632,21.6355831 C8.18123632,21.3086561 8.31156772,20.9952179 8.54337946,20.7646868 C8.7751912,20.5341558 9.08934675,20.4055579 9.41626866,20.4073551 L9.40944527,20.4073551 Z M26.3805637,13.529404 C26.3753035,15.7793379 24.5514834,17.6013276 22.3015453,17.6043284 L8.06114478,17.6043284 L4.52936169,4.65627662 L26.3805637,4.65627662 L26.3805637,13.529404 Z" id="Shape" fill="url(#linearGradient-1)"></path>
                <path d="M19.4166189,7.14544677 C20.8182636,8.12809867 21.6528156,9.73239175 21.6528156,11.4441781 C21.6528156,13.1559645 20.8182636,14.7602575 19.4166189,15.7429095 L19.4166189,7.14544677 Z" id="Path" fill="#FFBD00"></path>
                <path d="M16.6640662,5.58016269 C17.4478163,5.61887879 18.2129787,5.83243415 18.9035005,6.20518458 L18.9035005,15.4413159 C18.2128837,15.813634 17.4477175,16.0267242 16.6640662,16.0649731 L16.6640662,5.58016269 Z" id="Path" fill="#FFA100"></path>
                <path d="M16.1509478,16.6886303 C15.3671976,16.6499142 14.6020353,16.4363589 13.9115134,16.0636085 L13.9115134,6.82338308 C14.6021302,6.45106497 15.3672965,6.2379748 16.1509478,6.19972587 L16.1509478,16.6886303 Z" id="Path" fill="#FF8900"></path>
                <path d="M13.398395,15.1233463 C11.9967504,14.1406944 11.1621984,12.5364013 11.1621984,10.8246149 C11.1621984,9.11282857 11.9967504,7.50853549 13.398395,6.52588358 L13.398395,15.1233463 Z" id="Path" fill="#FF6E00"></path>
            </g>
        </g>
    </g>
</svg>