<?xml version="1.0" encoding="UTF-8"?>
<svg width="24px" height="24px" viewBox="0 0 24 24" version="1.1" xmlns="http://www.w3.org/2000/svg" xmlns:xlink="http://www.w3.org/1999/xlink">
    <!-- Generator: Sketch 64 (93537) - https://sketch.com -->
    <title>direction</title>
    <desc>Created with Sketch.</desc>
    <defs>
        <linearGradient x1="12.0583333%" y1="86.1691803%" x2="86.6166667%" y2="0.645229316%" id="linearGradient-1">
            <stop stop-color="#FFBD00" offset="0%"></stop>
            <stop stop-color="#FF8900" offset="100%"></stop>
        </linearGradient>
    </defs>
    <g id="Symbols" stroke="none" stroke-width="1" fill="none" fill-rule="evenodd">
        <g id="Explore/Active" fill-rule="nonzero">
            <g id="direction">
                <path d="M12,0 C5.38321569,0 0,5.38313725 0,11.9998824 C0,18.6167451 5.38321569,24 12,24 C18.6167843,24 24,18.6167451 24,11.9998824 C24,5.38313725 18.6168627,0 12,0 Z" id="Shape" fill="url(#linearGradient-1)"></path>
                <path d="M18.6668942,5.61832116 C18.4839481,5.27803877 18.0600024,5.15065547 17.7197931,5.33351917 L9.84883836,9.56569969 C9.72802193,9.63067744 9.62897066,9.72968738 9.56403134,9.85054125 L5.33347774,17.7196159 C5.18381258,17.9980072 5.24210364,18.3325515 5.45468989,18.5451341 C5.50182136,18.5923438 5.55655084,18.6334595 5.61840347,18.6666211 C5.82865492,18.7796792 6.07096052,18.7738621 6.26850903,18.6727548 L6.26862775,18.6729131 L6.27159573,18.6713302 C6.27444498,18.669866 6.27725467,18.6682831 6.28006435,18.6667794 L14.1548973,14.4376855 C14.2757533,14.3727869 14.374765,14.2737769 14.439823,14.1528835 L18.6534394,6.30327845 C18.6626599,6.28740995 18.6714451,6.27138316 18.6793597,6.25492107 L18.6850582,6.24435526 L18.6843459,6.24411783 C18.7738996,6.05112362 18.7753638,5.82010042 18.6668942,5.61832116 Z M13.6525969,12.6633814 L11.3407016,10.3515268 L16.3407921,7.66298338" id="Shape" fill="#FFFFFF"></path>
            </g>
        </g>
    </g>
</svg>