<?xml version="1.0" encoding="UTF-8"?>
<svg width="13px" height="11px" viewBox="0 0 13 11" version="1.1" xmlns="http://www.w3.org/2000/svg" xmlns:xlink="http://www.w3.org/1999/xlink">
    <!-- Generator: Sketch 64 (93537) - https://sketch.com -->
    <title>Wish</title>
    <desc>Created with Sketch.</desc>
    <defs>
        <linearGradient x1="12.0583333%" y1="75.896277%" x2="86.6166667%" y2="14.6631524%" id="linearGradient-1">
            <stop stop-color="#FFBD00" offset="0%"></stop>
            <stop stop-color="#FF8900" offset="100%"></stop>
        </linearGradient>
    </defs>
    <g id="Symbols" stroke="none" stroke-width="1" fill="none" fill-rule="evenodd">
        <g id="Product/Original/2" transform="translate(-143.000000, -125.000000)" fill="url(#linearGradient-1)" fill-rule="nonzero">
            <path d="M149.682232,126.46623 C150.34806,125.568759 151.268728,125 152.470703,125 C153.46746,125 154.379488,125.392352 155.035468,126.103221 C155.65803,126.777919 156,127.679137 156,128.640492 C156,129.686103 155.573597,130.656248 154.666838,131.686202 C153.99375,132.450766 153.296983,133.058305 151.404944,134.598098 C150.658132,135.205918 150.316699,135.485751 149.868851,135.859977 L149.852556,135.873615 C149.754176,135.955845 149.628989,136 149.5,136 C149.370984,136 149.245793,135.955853 149.147364,135.873548 L149.131245,135.860058 C148.682954,135.485461 148.338845,135.203428 147.595134,134.598148 C145.702938,133.058213 145.006247,132.450742 144.333166,131.686206 C143.426411,130.656282 143,129.686112 143,128.640492 C143,127.679142 143.341967,126.777923 143.964513,126.103239 C144.620524,125.392364 145.532557,125 146.529297,125 C147.731272,125 148.65194,125.568759 149.317765,126.466227 C149.381614,126.552284 149.442329,126.640658 149.5,126.730976 C149.557668,126.640682 149.618385,126.552303 149.682232,126.46623 Z" id="Wish"></path>
        </g>
    </g>
</svg>