<?xml version="1.0" encoding="UTF-8"?>
<svg width="24px" height="24px" viewBox="0 0 24 24" version="1.1" xmlns="http://www.w3.org/2000/svg" xmlns:xlink="http://www.w3.org/1999/xlink">
    <!-- Generator: Sketch 64 (93537) - https://sketch.com -->
    <title>Shape Copy</title>
    <desc>Created with Sketch.</desc>
    <defs>
        <linearGradient x1="12.0583333%" y1="86.1691803%" x2="86.6166667%" y2="0.645229316%" id="linearGradient-1">
            <stop stop-color="#FFBD00" offset="0%"></stop>
            <stop stop-color="#FF8900" offset="100%"></stop>
        </linearGradient>
    </defs>
    <g id="Symbols" stroke="none" stroke-width="1" fill="none" fill-rule="evenodd">
        <g id="Home-Icon/-Active" fill="url(#linearGradient-1)" fill-rule="nonzero">
            <path d="M23.3554722,10.4388428 C23.3547397,10.4382935 23.3541903,10.437561 23.3536409,10.4370117 L13.5625519,0.647277844 C13.1452123,0.229797375 12.5903467,0 12.0001381,0 C11.4099296,0 10.855064,0.229797375 10.4375413,0.647277844 L0.651579744,10.4320679 C0.648283489,10.4353638 0.644804122,10.4388428 0.641691026,10.4421387 C-0.215329135,11.3040161 -0.213864144,12.7023926 0.645902889,13.5620728 C1.03870378,13.9550171 1.55731086,14.1824341 2.11199334,14.2064209 C2.13470071,14.2086182 2.15740808,14.2097168 2.18029857,14.2097168 L2.57035264,14.2097168 L2.57035264,21.4141846 C2.57035264,22.8400268 3.73062609,24 5.15661242,24 L8.98719952,24 C9.37560549,24 9.69039555,23.6850586 9.69039555,23.296875 L9.69039555,17.6484375 C9.69039555,16.9978638 10.219807,16.468689 10.8704464,16.468689 L13.1298299,16.468689 C13.7804694,16.468689 14.3096976,16.9978638 14.3096976,17.6484375 L14.3096976,23.296875 C14.3096976,23.6850586 14.6244877,24 15.0128937,24 L18.8434808,24 C20.2696502,24 21.4297406,22.8400268 21.4297406,21.4141846 L21.4297406,14.2097168 L21.7915935,14.2097168 C22.3816189,14.2097168 22.9364845,13.9799194 23.3541903,13.5622559 C24.2148729,12.701294 24.2152392,11.300354 23.3554722,10.4388427 L23.3554722,10.4388428 Z" id="Shape-Copy"></path>
        </g>
    </g>
</svg>