<?xml version="1.0" encoding="UTF-8"?>
<svg width="24px" height="24px" viewBox="0 0 24 24" version="1.1" xmlns="http://www.w3.org/2000/svg" xmlns:xlink="http://www.w3.org/1999/xlink">
    <!-- Generator: Sketch 64 (93537) - https://sketch.com -->
    <title>Home Icon</title>
    <desc>Created with Sketch.</desc>
    <g id="Symbols" stroke="none" stroke-width="1" fill="none" fill-rule="evenodd">
        <g id="Menu" transform="translate(-39.000000, -25.000000)" fill="#979797" fill-rule="nonzero">
            <g id="Group-3">
                <g id="Group-2">
                    <g id="Group" transform="translate(39.000000, 25.000000)">
                        <g id="Home-Icon">
                            <path d="M23.3554722,10.4388428 C23.3547397,10.4382935 23.3541903,10.437561 23.3536409,10.4370117 L13.5625519,0.647277844 C13.1452123,0.229797375 12.5903467,0 12.0001381,0 C11.4099296,0 10.855064,0.229797375 10.4375413,0.647277844 L0.651579744,10.4320679 C0.648283489,10.4353638 0.644804122,10.4388428 0.641691026,10.4421387 C-0.215329135,11.3040161 -0.213864144,12.7023926 0.645902889,13.5620728 C1.03870378,13.9550171 1.55731086,14.1824341 2.11199334,14.2064209 C2.13470071,14.2086182 2.15740808,14.2097168 2.18029857,14.2097168 L2.57035264,14.2097168 L2.57035264,21.4141846 C2.57035264,22.8400268 3.73062609,24 5.15661242,24 L8.98719952,24 C9.37560549,24 9.69039555,23.6850586 9.69039555,23.296875 L9.69039555,17.6484375 C9.69039555,16.9978638 10.219807,16.468689 10.8704464,16.468689 L13.1298299,16.468689 C13.7804694,16.468689 14.3096976,16.9978638 14.3096976,17.6484375 L14.3096976,23.296875 C14.3096976,23.6850586 14.6244877,24 15.0128937,24 L18.8434808,24 C20.2696502,24 21.4297406,22.8400268 21.4297406,21.4141846 L21.4297406,14.2097168 L21.7915935,14.2097168 C22.3816189,14.2097168 22.9364845,13.9799194 23.3541903,13.5622559 C24.2148729,12.701294 24.2152392,11.300354 23.3554722,10.4388427 L23.3554722,10.4388428 Z M22.359644,12.5679932 C22.2078343,12.7197876 22.0060316,12.8034668 21.7915935,12.8034668 L20.7265445,12.8034668 C20.3381386,12.8034668 20.0233485,13.1182251 20.0233485,13.5065918 L20.0233485,21.4141846 C20.0233485,22.0645752 19.4941202,22.59375 18.8434808,22.59375 L15.7160897,22.59375 L15.7160897,17.6484375 C15.7160897,16.2225952 14.5559994,15.062439 13.1298299,15.062439 L10.8704464,15.062439 C9.44427694,15.062439 8.28400349,16.2225952 8.28400349,17.6484375 L8.28400349,22.59375 L5.15661242,22.59375 C4.5061561,22.59375 3.9767447,22.0645752 3.9767447,21.4141846 L3.9767447,13.5065918 C3.9767447,13.1182251 3.66195459,12.8034668 3.27354867,12.8034668 L2.22681208,12.8034668 C2.21582464,12.8027344 2.20502031,12.802185 2.19384976,12.802002 C1.98435595,12.7983398 1.78786394,12.7152099 1.64063227,12.56781 C1.32749027,12.2546997 1.32749027,11.7451172 1.64063227,11.4318237 C1.64081539,11.4318237 1.64081539,11.4316406 1.6409985,11.4314575 L1.64154788,11.4309082 L11.4322707,1.64154052 C11.5838974,1.48974609 11.7855169,1.40625 12.0001381,1.40625 C12.2145763,1.40625 12.4161958,1.48974609 12.5680056,1.64154052 L22.3565309,11.428894 C22.3579959,11.4303589 22.359644,11.4318237 22.361109,11.4332886 C22.6726029,11.7469482 22.6720535,12.2554321 22.359644,12.5679932 Z" id="Shape"></path>
                        </g>
                    </g>
                </g>
            </g>
        </g>
    </g>
</svg>