<?xml version="1.0" encoding="UTF-8"?>
<svg width="29px" height="29px" viewBox="0 0 29 29" version="1.1" xmlns="http://www.w3.org/2000/svg" xmlns:xlink="http://www.w3.org/1999/xlink">
    <!-- Generator: Sketch 64 (93537) - https://sketch.com -->
    <title>Group 30</title>
    <desc>Created with Sketch.</desc>
    <g id="Screens" stroke="none" stroke-width="1" fill="none" fill-rule="evenodd">
        <g id="Home/Sign-Up" transform="translate(-171.000000, -728.000000)">
            <g id="Group-30" transform="translate(171.000000, 728.000000)">
                <rect id="Rectangle-Copy-2" fill="#929292" x="0" y="0" width="29" height="29" rx="8"></rect>
                <path d="M15.7764974,19.6451613 L15.7764974,14.9591027 L17.4362105,14.9591027 L17.6730317,13.1305355 L15.7764974,13.1305355 L15.7764974,11.9879179 C15.7764974,11.4734558 15.9543589,11.0736343 16.7247645,11.0736343 L17.7319913,11.0736343 L17.7319913,9.41655458 C17.4951701,9.41655458 16.902626,9.35970794 16.2501396,9.35970794 C15.5824958,9.31689179 14.9288786,9.55805178 14.4614444,10.0196688 C13.9940102,10.4812857 13.759624,11.1170779 13.8200208,11.7595839 L13.8200208,13.1305355 L12.1612903,13.1305355 L12.1612903,14.9591027 L13.8210035,14.9591027 L13.8210035,19.6442138 L15.7764974,19.6451613 Z" id="Path_1" fill="#E8E8E8" fill-rule="nonzero"></path>
            </g>
        </g>
    </g>
</svg>