<?xml version="1.0" encoding="UTF-8"?>
<svg width="29px" height="29px" viewBox="0 0 29 29" version="1.1" xmlns="http://www.w3.org/2000/svg" xmlns:xlink="http://www.w3.org/1999/xlink">
    <!-- Generator: Sketch 64 (93537) - https://sketch.com -->
    <title>Group 27</title>
    <desc>Created with Sketch.</desc>
    <g id="Screens" stroke="none" stroke-width="1" fill="none" fill-rule="evenodd">
        <g id="Home/Sign-Up" transform="translate(-216.000000, -728.000000)">
            <g id="Group-27" transform="translate(216.000000, 728.000000)">
                <rect id="Rectangle" fill="#929292" x="0" y="0" width="29" height="29" rx="8"></rect>
                <path d="M9.42426915,9.7532451 C10.7001415,11.3500731 12.5929599,12.3531682 14.6498236,12.5225165 C14.4622315,11.7453691 14.6522427,10.9265527 15.1640377,10.3066106 C15.6758327,9.68666849 16.4512889,9.33600518 17.2626008,9.3576349 C18.0172651,9.32299474 18.7502219,9.61154194 19.2724294,10.1488553 C19.8610087,10.1349887 20.427578,9.9258845 20.8802923,9.55544 C20.7146823,10.115848 20.3602988,10.6041406 19.875378,10.9400757 C20.3730502,10.9427691 20.861152,10.8055164 21.2822581,10.5444655 C21.0171949,11.1705588 20.5115296,11.668229 19.875378,11.9291012 C19.984653,13.9038574 19.2772559,15.838081 17.9142831,17.2912889 C16.5513102,18.7444969 14.6487934,19.5929757 12.639995,19.6435002 C11.1438255,19.6748723 9.67284715,19.2612379 8.41935484,18.4566695 C9.75954715,18.4717031 11.0789558,18.1299801 12.2380292,17.467644 C11.1837592,17.30485 10.2802234,16.6379126 9.82623488,15.6873981 C10.2373543,15.6979617 10.6467163,15.6308134 11.0321321,15.489593 C9.85442621,15.1216521 8.99508531,14.1221249 8.82132056,12.9181267 C9.19253664,13.1276514 9.60251045,13.2621486 10.0272177,13.3137369 C8.95997517,12.4365536 8.70377766,10.9236731 9.42426915,9.7532451" id="Path" fill="#E8E8E8" fill-rule="nonzero"></path>
            </g>
        </g>
    </g>
</svg>