<?xml version="1.0" encoding="UTF-8"?>
<svg width="19px" height="19px" viewBox="0 0 19 19" version="1.1" xmlns="http://www.w3.org/2000/svg" xmlns:xlink="http://www.w3.org/1999/xlink">
    <!-- Generator: Sketch 64 (93537) - https://sketch.com -->
    <title>Group 3</title>
    <desc>Created with Sketch.</desc>
    <g id="Symbols" stroke="none" stroke-width="1" fill="none" fill-rule="evenodd">
        <g id="Product/Original/list" transform="translate(-130.000000, 0.000000)">
            <g id="Group-3" transform="translate(130.000000, 0.000000)">
                <rect id="Rectangle" fill="#282828" x="0" y="0" width="19" height="19"></rect>
                <path d="M15.4340077,9.42823988 L11.8438941,5.90716344 C11.7503941,5.8154614 11.5989361,5.8154614 11.5054586,5.90716344 C11.4119585,5.99886547 11.4119585,6.14741088 11.5054586,6.23909091 L14.6870173,9.35946885 L4.25511185,9.35946885 C4.12281616,9.35946885 4.01576346,9.46446295 4.01576346,9.59421462 C4.01576346,9.72396628 4.12281616,9.82896038 4.25511185,9.82896038 L14.6870173,9.82896038 L11.5054586,12.9493163 C11.4119585,13.0410184 11.4119585,13.1895638 11.5054586,13.2812438 C11.5521973,13.3270838 11.6134537,13.3500148 11.6746875,13.3500148 C11.7359214,13.3500148 11.7971553,13.3270838 11.8439165,13.2812438 L15.4340302,9.76016735 C15.5275078,9.66848732 15.5275078,9.51994191 15.4340077,9.42823988 Z" id="Path" stroke="#FFFFFF" stroke-width="0.3" fill="#FFFFFF" fill-rule="nonzero" transform="translate(9.759950, 9.594201) scale(1, -1) rotate(45.000000) translate(-9.759950, -9.594201) "></path>
            </g>
        </g>
    </g>
</svg>