<?xml version="1.0" encoding="UTF-8"?>
<svg width="500px" height="513px" viewBox="0 0 500 513" version="1.1" xmlns="http://www.w3.org/2000/svg" xmlns:xlink="http://www.w3.org/1999/xlink">
    <title>Group 11</title>
    <defs>
        <path d="M8.64897959,0 C4.40408163,0 0.965306122,3.44081633 0.965306122,7.68367347 L0.965306122,7.68367347 C0.965306122,11.9265306 4.40408163,15.3673469 8.64897959,15.3673469 L8.64897959,15.3673469 L35.3795918,15.3673469 L47.8040816,60.9306122 L101.038776,256.126531 L85.4877551,256.126531 C67.1285714,256.126531 52.1918367,271.067347 52.1918367,289.42449 L52.1918367,289.42449 C52.1918367,307.783673 67.1285714,322.718367 85.4877551,322.718367 L85.4877551,322.718367 L104.346939,322.718367 C107.830612,337.381633 121,348.334694 136.712245,348.334694 L136.712245,348.334694 C152.42449,348.334694 165.597959,337.381633 169.077551,322.718367 L169.077551,322.718367 L283.636735,322.718367 C287.118367,337.381633 300.289796,348.334694 316.004082,348.334694 L316.004082,348.334694 C331.712245,348.334694 344.885714,337.381633 348.367347,322.718367 L348.367347,322.718367 L367.226531,322.718367 C371.469388,322.718367 374.910204,319.277551 374.910204,315.036735 L374.910204,315.036735 C374.910204,310.793878 371.469388,307.353061 367.226531,307.353061 L367.226531,307.353061 L348.367347,307.353061 C344.885714,292.691837 331.712245,281.740816 316.004082,281.740816 L316.004082,281.740816 C300.289796,281.740816 287.118367,292.691837 283.636735,307.353061 L283.636735,307.353061 L169.077551,307.353061 C165.597959,292.691837 152.42449,281.740816 136.712245,281.740816 L136.712245,281.740816 C121,281.740816 107.830612,292.691837 104.346939,307.353061 L104.346939,307.353061 L85.4877551,307.353061 C75.6020408,307.353061 67.5591837,299.308163 67.5591837,289.42449 L67.5591837,289.42449 C67.5591837,279.538776 75.6020408,271.493878 85.4877551,271.493878 L85.4877551,271.493878 L111.1,271.493878 L136.712245,271.493878 L325.442857,271.493878 C366.842857,271.493878 400.52449,237.814286 400.52449,196.412245 L400.52449,196.412245 L400.52449,58.9102041 C400.52449,54.6653061 397.081633,51.2265306 392.840816,51.2265306 L392.840816,51.2265306 L61.0857143,51.2265306 L48.6612245,5.66326531 C47.7489796,2.32040816 44.7122449,0 41.2489796,0 L41.2489796,0 L8.64897959,0 Z M65.277551,66.5938776 L385.159184,66.5938776 L385.159184,196.412245 C385.159184,229.340816 358.367347,256.126531 325.442857,256.126531 L325.442857,256.126531 L136.712245,256.126531 L116.967347,256.126531 L65.277551,66.5938776 Z M298.07551,315.036735 C298.07551,305.15102 306.118367,297.108163 316.004082,297.108163 L316.004082,297.108163 C325.887755,297.108163 333.932653,305.15102 333.932653,315.036735 L333.932653,315.036735 C333.932653,324.922449 325.887755,332.967347 316.004082,332.967347 L316.004082,332.967347 C306.118367,332.967347 298.07551,324.922449 298.07551,315.036735 L298.07551,315.036735 Z M118.783673,315.036735 C118.783673,305.15102 126.826531,297.108163 136.712245,297.108163 L136.712245,297.108163 C146.597959,297.108163 154.642857,305.15102 154.642857,315.036735 L154.642857,315.036735 C154.642857,324.922449 146.597959,332.967347 136.712245,332.967347 L136.712245,332.967347 C126.826531,332.967347 118.783673,324.922449 118.783673,315.036735 L118.783673,315.036735 Z" id="path-1"></path>
        <linearGradient x1="12.0588595%" y1="77.4882121%" x2="86.6160677%" y2="12.489425%" id="linearGradient-3">
            <stop stop-color="#FFBC00" offset="0%"></stop>
            <stop stop-color="#FF8900" offset="100%"></stop>
        </linearGradient>
    </defs>
    <g id="Page-1" stroke="none" stroke-width="1" fill="none" fill-rule="evenodd">
        <g id="Group-11">
            <g id="Group-13" transform="translate(48.979592, 0.000000)">
                <g id="Group-3">
                    <mask id="mask-2" fill="white">
                        <use xlink:href="#path-1"></use>
                    </mask>
                    <g id="Clip-2"></g>
                    <path d="M8.64897959,0 C4.40408163,0 0.965306122,3.44081633 0.965306122,7.68367347 L0.965306122,7.68367347 C0.965306122,11.9265306 4.40408163,15.3673469 8.64897959,15.3673469 L8.64897959,15.3673469 L35.3795918,15.3673469 L47.8040816,60.9306122 L101.038776,256.126531 L85.4877551,256.126531 C67.1285714,256.126531 52.1918367,271.067347 52.1918367,289.42449 L52.1918367,289.42449 C52.1918367,307.783673 67.1285714,322.718367 85.4877551,322.718367 L85.4877551,322.718367 L104.346939,322.718367 C107.830612,337.381633 121,348.334694 136.712245,348.334694 L136.712245,348.334694 C152.42449,348.334694 165.597959,337.381633 169.077551,322.718367 L169.077551,322.718367 L283.636735,322.718367 C287.118367,337.381633 300.289796,348.334694 316.004082,348.334694 L316.004082,348.334694 C331.712245,348.334694 344.885714,337.381633 348.367347,322.718367 L348.367347,322.718367 L367.226531,322.718367 C371.469388,322.718367 374.910204,319.277551 374.910204,315.036735 L374.910204,315.036735 C374.910204,310.793878 371.469388,307.353061 367.226531,307.353061 L367.226531,307.353061 L348.367347,307.353061 C344.885714,292.691837 331.712245,281.740816 316.004082,281.740816 L316.004082,281.740816 C300.289796,281.740816 287.118367,292.691837 283.636735,307.353061 L283.636735,307.353061 L169.077551,307.353061 C165.597959,292.691837 152.42449,281.740816 136.712245,281.740816 L136.712245,281.740816 C121,281.740816 107.830612,292.691837 104.346939,307.353061 L104.346939,307.353061 L85.4877551,307.353061 C75.6020408,307.353061 67.5591837,299.308163 67.5591837,289.42449 L67.5591837,289.42449 C67.5591837,279.538776 75.6020408,271.493878 85.4877551,271.493878 L85.4877551,271.493878 L111.1,271.493878 L136.712245,271.493878 L325.442857,271.493878 C366.842857,271.493878 400.52449,237.814286 400.52449,196.412245 L400.52449,196.412245 L400.52449,58.9102041 C400.52449,54.6653061 397.081633,51.2265306 392.840816,51.2265306 L392.840816,51.2265306 L61.0857143,51.2265306 L48.6612245,5.66326531 C47.7489796,2.32040816 44.7122449,0 41.2489796,0 L41.2489796,0 L8.64897959,0 Z M65.277551,66.5938776 L385.159184,66.5938776 L385.159184,196.412245 C385.159184,229.340816 358.367347,256.126531 325.442857,256.126531 L325.442857,256.126531 L136.712245,256.126531 L116.967347,256.126531 L65.277551,66.5938776 Z M298.07551,315.036735 C298.07551,305.15102 306.118367,297.108163 316.004082,297.108163 L316.004082,297.108163 C325.887755,297.108163 333.932653,305.15102 333.932653,315.036735 L333.932653,315.036735 C333.932653,324.922449 325.887755,332.967347 316.004082,332.967347 L316.004082,332.967347 C306.118367,332.967347 298.07551,324.922449 298.07551,315.036735 L298.07551,315.036735 Z M118.783673,315.036735 C118.783673,305.15102 126.826531,297.108163 136.712245,297.108163 L136.712245,297.108163 C146.597959,297.108163 154.642857,305.15102 154.642857,315.036735 L154.642857,315.036735 C154.642857,324.922449 146.597959,332.967347 136.712245,332.967347 L136.712245,332.967347 C126.826531,332.967347 118.783673,324.922449 118.783673,315.036735 L118.783673,315.036735 Z" id="Fill-1" fill="url(#linearGradient-3)" mask="url(#mask-2)"></path>
                </g>
                <g id="Group-12" transform="translate(162.326939, 80.052245)">
                    <path d="M120.883673,22.9042857 C141.453061,37.3206122 153.67551,60.7165306 153.67551,85.867551 C153.67551,111.020612 141.453061,134.41449 120.883673,148.832857 L120.883673,22.9042857 Z" id="Fill-4" fill="#FFBD00"></path>
                    <path d="M80.5893878,0 C92.0444898,0.56122449 103.34449,3.71020408 113.379184,9.14081633 L113.379184,144.353061 C103.340408,149.787755 92.0404082,152.934694 80.5893878,153.493878 L80.5893878,0 Z" id="Fill-6" fill="#FFA100"></path>
                    <path d="M73.0838776,162.61551 C61.6287755,162.054286 50.3267347,158.905306 40.2920408,153.474694 L40.2920408,18.262449 C50.3287755,12.8318367 61.6308163,9.68285714 73.0838776,9.12163265 L73.0838776,162.61551 Z" id="Fill-8" fill="#FF8900"></path>
                    <path d="M32.7877551,139.709184 C12.2204082,125.294898 -2.0301221e-13,101.90102 -2.0301221e-13,76.7459184 C-2.0301221e-13,51.5928571 12.2204082,28.1989796 32.7877551,13.7826531 L32.7877551,139.709184 Z" id="Fill-10" fill="#FF6E00"></path>
                </g>
            </g>
            <g id="Group-10" transform="translate(0.000000, 387.755102)">
                <g id="Group-48" transform="translate(0.146602, -0.000000)" fill="#808080">
                    <path d="M7.6691067e-14,90.5670176 L7.6691067e-14,6.40699649 C1.64173412,6.08123591 3.79651016,5.91389315 6.46655873,5.91389315 C9.13437669,5.91389315 11.3337651,6.08123591 13.058032,6.40699649 L13.058032,90.5670176 C11.3337651,90.8950094 9.13437669,91.0623521 6.46655873,91.0623521 C3.79651016,91.0623521 1.64173412,90.8950094 7.6691067e-14,90.5670176" id="Fill-12"></path>
                    <path d="M62.9016154,29.5730357 C63.3120489,30.96979 63.5172657,32.571818 63.5172657,34.3768886 C63.5172657,36.1841904 63.3120489,37.7482874 62.9016154,39.0602546 L47.749034,38.8125874 L47.749034,75.5499014 C47.749034,79.1533488 49.4309192,80.9561881 52.7991509,80.9561881 L61.3000324,80.9561881 C61.9558338,82.7835711 62.2859651,84.6332664 62.2859651,86.5052741 C62.2859651,88.379513 62.2034323,89.604462 62.0383666,90.1868148 C57.2759993,90.7669364 52.676467,91.0614596 48.2420004,91.0614596 C39.618435,91.0614596 35.3066523,86.8310346 35.3066523,78.3679534 L35.3066523,38.9375366 L26.1901205,39.0602546 C25.8622198,37.6635004 25.6993848,36.123947 25.6993848,34.4393632 C25.6993848,32.7570107 25.8622198,31.1349015 26.1901205,29.5730357 L35.3066523,29.8184718 L35.3066523,18.9768922 C35.3066523,16.0182722 35.7996186,13.9231408 36.7855514,12.6914981 C37.7714841,11.4576241 39.5359021,10.8418028 42.0832668,10.8418028 L46.8857852,10.8418028 L47.749034,11.7052914 L47.749034,29.9411898 L62.9016154,29.5730357 Z" id="Fill-14"></path>
                    <path d="M94.8665803,82.0648897 C100.119683,82.0648897 104.971275,79.6016043 109.405742,74.6728022 L109.405742,62.9632714 C107.761777,62.8003911 106.03751,62.6799043 104.230711,62.5951173 C102.42168,62.5147928 100.536809,62.4746306 98.5649433,62.4746306 C94.7818169,62.4746306 91.8485555,63.3983626 89.7540061,65.2435954 C87.6616874,67.0910595 86.6132974,69.5387263 86.6132974,72.5754396 C86.6132974,75.5340596 87.3538622,77.8567771 88.8305307,79.5368984 C90.3071991,81.2237134 92.3214463,82.0648897 94.8665803,82.0648897 M125.41488,84.8985604 C124.431178,87.8549492 122.827365,90.0326363 120.610131,91.4293906 C115.765231,90.5279709 112.481763,87.9776672 110.759727,83.7874045 C104.926663,89.3766527 98.9307645,92.1701612 92.7720309,92.1701612 C89.6513977,92.1701612 86.9211225,91.6770579 84.5812053,90.6908512 C82.241288,89.7046445 80.2694226,88.3703649 78.6678395,86.6857811 C77.0684871,85.0011973 75.875107,83.0689463 75.0966217,80.8957216 C74.3136751,78.7180345 73.9255478,76.4399417 73.9255478,74.0547496 C73.9255478,67.3208769 76.0803238,62.224732 80.3921065,58.7752399 C84.7038892,55.3257478 90.4321137,53.6010018 97.57678,53.6010018 C99.626717,53.6010018 101.643195,53.6634764 103.61283,53.7861944 C105.582464,53.9089125 107.514179,54.1364986 109.405742,54.4622592 L109.405742,49.6227066 C109.405742,42.2529314 106.03751,38.5691594 99.301047,38.5691594 C94.6189818,38.5691594 88.1724987,40.1689562 79.9615974,43.3730123 C77.5792984,41.3202744 76.3457672,38.2389364 76.265465,34.1334606 C84.6436625,30.3537455 93.1423134,28.4638879 101.765879,28.4638879 C108.16998,28.4638879 113.137564,30.1685528 116.668631,33.5778827 C120.199698,36.9872125 121.968577,42.1391383 121.968577,49.0403537 L121.968577,74.3024169 C121.968577,79.3963305 123.119575,82.9283783 125.41488,84.8985604" id="Fill-16"></path>
                    <path d="M133.574477,35.6096469 C134.395344,32.5707024 135.956776,30.3104595 138.256543,28.8333807 C143.92454,30.0650235 147.658593,33.7220206 149.467624,39.7976784 C152.751092,32.4903779 158.12911,28.8333807 165.603907,28.8333807 C167.575773,28.8333807 169.748394,29.0788168 172.132923,29.5719201 C172.132923,34.3378419 171.106839,38.3629931 169.054672,41.649605 C168.316337,41.4019377 166.632222,41.1966639 164.004555,41.0315524 C158.414629,41.0315524 154.024774,44.1552839 150.821608,50.3960532 L150.821608,90.5672407 C149.260176,90.8952325 147.145551,91.0625752 144.475503,91.0625752 C141.807685,91.0625752 139.69306,90.8952325 138.131628,90.5672407 L138.131628,48.3031531 C138.131628,42.7161361 136.612578,38.4879424 133.574477,35.6096469" id="Fill-18"></path>
                    <path d="M202.986149,82.0648897 C208.239252,82.0648897 213.086382,79.6016043 217.52308,74.6728022 L217.52308,62.9632714 C215.876884,62.8003911 214.154848,62.6799043 212.345818,62.5951173 C210.539018,62.5147928 208.651916,62.4746306 206.682281,62.4746306 C202.901385,62.4746306 199.965893,63.3983626 197.873574,65.2435954 C195.781256,67.0910595 194.732866,69.5387263 194.732866,72.5754396 C194.732866,75.5340596 195.4712,77.8567771 196.950099,79.5368984 C198.426767,81.2237134 200.438784,82.0648897 202.986149,82.0648897 M233.534449,84.8985604 C232.550747,87.8549492 230.946933,90.0326363 228.7297,91.4293906 C223.884799,90.5279709 220.601331,87.9776672 218.874834,83.7874045 C213.046231,89.3766527 207.048102,92.1701612 200.891599,92.1701612 C197.768735,92.1701612 195.03846,91.6770579 192.698543,90.6908512 C190.360856,89.7046445 188.38676,88.3703649 186.785177,86.6857811 C185.185825,85.0011973 183.992445,83.0689463 183.213959,80.8957216 C182.433243,78.7180345 182.042885,76.4399417 182.042885,74.0547496 C182.042885,67.3208769 184.197661,62.224732 188.511675,58.7752399 C192.821227,55.3257478 198.551682,53.6010018 205.694118,53.6010018 C207.746285,53.6010018 209.760532,53.6634764 211.732398,53.7861944 C213.702033,53.9089125 215.631516,54.1364986 217.52308,54.4622592 L217.52308,49.6227066 C217.52308,42.2529314 214.154848,38.5691594 207.420615,38.5691594 C202.73855,38.5691594 196.289836,40.1689562 188.078935,43.3730123 C185.696636,41.3202744 184.465335,38.2389364 184.382803,34.1334606 C192.75877,30.3537455 201.261882,28.4638879 209.885447,28.4638879 C216.289548,28.4638879 221.257133,30.1685528 224.788199,33.5778827 C228.319266,36.9872125 230.085915,42.1391383 230.085915,49.0403537 L230.085915,74.3024169 C230.085915,79.3963305 231.236913,82.9283783 233.534449,84.8985604" id="Fill-20"></path>
                    <path d="M244.513992,82.927709 C244.839662,78.9025578 246.688843,75.5356214 250.057075,72.8224375 C258.595877,78.4094544 266.853621,81.2051942 274.816924,81.2051942 C279.664055,81.2051942 283.502947,80.1364317 286.3336,77.9989069 C289.170944,75.8636133 290.582925,73.0701048 290.582925,69.6183814 C290.582925,63.9488087 286.848872,59.5153412 279.376305,56.3090539 L264.839374,50.025891 C253.585911,45.1818759 247.962526,38.0731555 247.962526,28.7108858 C247.962526,25.3417183 248.658478,22.2001368 250.057075,19.2839103 C251.453441,16.3676838 253.382925,13.7995303 255.845526,11.5816809 C258.312589,9.3638315 261.286001,7.68147895 264.776917,6.53016076 C268.265602,5.3810738 272.106724,4.80318347 276.295823,4.80318347 C284.919388,4.80318347 293.45819,6.94293957 301.91669,11.2135268 C301.836388,15.153891 300.232574,18.5632209 297.114172,21.4392851 C289.231171,17.5770142 282.206958,15.6492256 276.050455,15.6492256 C271.613758,15.6492256 268.04254,16.7380691 265.33234,18.9157563 C262.622141,21.0912122 261.265926,23.6571345 261.265926,26.6157545 C261.265926,29.654699 262.109099,32.0175788 263.793215,33.6999313 C265.472869,35.3845151 268.04254,36.9262998 271.493305,38.3208228 L285.782637,44.4812676 C291.941371,47.1118958 296.560979,50.2936395 299.63923,54.0309611 C302.719712,57.770514 304.258838,62.2262939 304.258838,67.400532 C304.258838,74.7926196 301.691398,80.770103 296.560979,85.330751 C291.426098,89.8891678 283.645706,92.1717231 273.215341,92.1717231 C262.784976,92.1717231 253.215629,89.0881538 244.513992,82.927709" id="Fill-22"></path>
                    <path d="M365.191711,48.9176357 L365.191711,77.5064729 C365.191711,82.4330438 365.847512,86.1725967 367.161346,88.7184379 C364.86381,90.5279709 362.356597,91.4293906 359.648627,91.4293906 C356.938428,91.4293906 355.069171,90.7533258 354.043087,89.4011963 C353.014772,88.0512981 352.503961,86.0208726 352.503961,83.3166136 L352.503961,52.0904545 C352.503961,47.8310234 351.948538,44.8010038 350.83769,42.9981645 C349.729074,41.1975564 347.821896,40.2916742 345.109466,40.2916742 C342.401497,40.2916742 339.62884,40.9900514 336.798187,42.3845744 C333.963072,43.7768661 331.478165,45.6198677 329.345695,47.9113479 L329.345695,90.5681332 C328.522598,90.7310135 327.576816,90.8515002 326.50835,90.9385185 C325.444346,91.0166118 324.335729,91.0612365 323.1825,91.0612365 C322.031502,91.0612365 320.90504,91.0166118 319.796424,90.9385185 C318.687807,90.8515002 317.72195,90.7310135 316.901083,90.5681332 L316.901083,0.738539383 L317.643878,-3.93041718e-13 L322.569081,-3.93041718e-13 C325.111984,-3.93041718e-13 326.878633,0.615821358 327.866796,1.84746407 C328.850498,3.07910679 329.345695,5.17423815 329.345695,8.13062692 L329.345695,36.8421821 C335.337133,31.4202767 341.825997,28.7115552 348.805598,28.7115552 C354.30853,28.7115552 358.415096,30.5389382 361.127527,34.193704 C363.835496,37.8507012 365.191711,42.7571909 365.191711,48.9176357" id="Fill-24"></path>
                    <path d="M404.578162,37.8279426 C395.666847,37.8279426 391.212304,45.2646548 391.212304,60.1313857 C391.212304,75.0003477 395.666847,82.4325975 404.578162,82.4325975 C413.567548,82.4325975 418.064472,75.0003477 418.064472,60.1313857 C418.064472,45.2646548 413.567548,37.8279426 404.578162,37.8279426 M422.376255,85.3912175 C417.859255,89.9094721 411.905738,92.1697149 404.517935,92.1697149 C400.244073,92.1697149 396.465407,91.4088632 393.181939,89.8893909 C389.89624,88.3699187 387.125814,86.1922315 384.86843,83.3585608 C382.606584,80.5248901 380.882317,77.1579537 379.693398,73.2555205 C378.502249,69.3553186 377.906674,64.9798632 377.906674,60.1313857 C377.906674,55.3676951 378.502249,51.0123208 379.693398,47.0697254 C380.882317,43.12713 382.606584,39.7378813 384.86843,36.9042105 C387.125814,34.0705398 389.89624,31.8950839 393.181939,30.3733804 C396.465407,28.8539081 400.244073,28.0930564 404.517935,28.0930564 C408.785105,28.0930564 412.56377,28.8539081 415.847239,30.3733804 C419.130707,31.8950839 421.905595,34.0705398 424.162979,36.9042105 C426.420363,39.7378813 428.14463,43.12713 429.33801,47.0697254 C430.52916,51.0123208 431.122504,55.3676951 431.122504,60.1313857 C431.122504,71.1403081 428.207088,79.5609958 422.376255,85.3912175" id="Fill-26"></path>
                    <path d="M469.880367,38.8128105 C464.54027,38.8128105 460.025501,41.4925259 456.331599,46.845263 L456.331599,77.1231464 C458.464069,78.5243631 460.540774,79.6154379 462.550559,80.3986021 C464.562576,81.1795349 466.474215,81.5700014 468.278784,81.5700014 C472.139982,81.5700014 475.238309,79.6756813 477.578226,75.8870412 C479.920374,72.0984011 481.089217,66.7010393 481.089217,59.6949557 C481.089217,52.5304544 480.020752,47.2580418 477.888282,43.8799493 C475.753582,40.504088 473.083533,38.8128105 469.880367,38.8128105 M470.375564,91.6752729 C465.773801,91.6752729 461.093967,90.3209121 456.331599,87.6099594 L456.331599,108.927196 C456.331599,111.801029 455.816327,113.873848 454.790243,115.150115 C453.761928,116.42192 451.975204,117.060054 449.432301,117.060054 L444.504868,117.060054 L443.764303,116.319283 L443.764303,29.9414129 L444.504868,29.2028736 L448.446368,29.2028736 C452.552934,29.2028736 455.055686,31.2957737 455.961317,35.4860364 C460.721453,30.5572343 466.429602,28.0939489 473.083533,28.0939489 C476.367001,28.0939489 479.322569,28.8347195 481.952466,30.3117982 C484.580133,31.7911083 486.777291,33.9286331 488.541709,36.7199104 C490.308358,39.5111876 491.664573,42.860274 492.605893,46.7627072 C493.549444,50.6651404 494.024566,55.0785268 494.024566,60.0073289 C494.024566,64.936131 493.411146,69.3718298 492.177615,73.3166564 C490.944083,77.2570206 489.239892,80.5860259 487.067271,83.2969787 C484.890189,86.0057002 482.3629,88.0829816 479.489865,89.5198981 C476.6146,90.9545834 473.576499,91.6752729 470.375564,91.6752729" id="Fill-28"></path>
                </g>
                <path d="M13.1138694,116.97957 L13.1138694,113.984427 L3.72369131,113.984427 L3.72369131,99.1706115 L3.25937035e-14,99.1706115 L3.25937035e-14,116.97957 L13.1138694,116.97957 Z M21.4695098,101.545139 C22.2430302,101.545139 22.8186733,101.378742 23.1964391,101.045949 C23.5742049,100.713155 23.7630878,100.222959 23.7630878,99.5753605 C23.7630878,98.9097732 23.5742049,98.4105827 23.1964391,98.077789 C22.8186733,97.7449954 22.2430302,97.5785985 21.4695098,97.5785985 C20.6959894,97.5785985 20.1203463,97.7449954 19.7425805,98.077789 C19.3648147,98.4105827 19.1759318,98.9097732 19.1759318,99.5753605 C19.1759318,100.222959 19.3648147,100.713155 19.7425805,101.045949 C20.1203463,101.378742 20.6959894,101.545139 21.4695098,101.545139 Z M23.3043722,116.97957 L23.3043722,103.487935 L19.6076642,103.487935 L19.6076642,116.97957 L23.3043722,116.97957 Z M38.5488462,116.97957 L43.6756675,103.487935 L39.8440432,103.487935 L36.4441511,114.146327 L33.1252088,103.487935 L29.1586681,103.487935 L34.2854895,116.97957 L38.5488462,116.97957 Z M55.5979647,117.249403 C56.5153959,117.249403 57.3743633,117.118984 58.174867,116.858145 C58.9753707,116.597307 59.6679413,116.215044 60.2525788,115.711356 C60.8372164,115.207669 61.2734459,114.605042 61.5612674,113.903477 L61.5612674,113.903477 L58.620091,112.77018 C58.3502583,113.309845 57.9724925,113.732583 57.4867936,114.038393 C57.0010947,114.344204 56.3624907,114.497109 55.5709814,114.497109 C54.8514275,114.497109 54.2353095,114.344204 53.7226274,114.038393 C53.2099453,113.732583 52.8141906,113.26937 52.5353635,112.648755 C52.4238326,112.400509 52.334608,112.125639 52.2676895,111.824146 L52.1910416,111.394033 L61.7231671,111.394033 C61.7471522,111.226137 61.7671398,111.042251 61.7831299,110.842375 L61.8041169,110.530568 C61.8221057,110.206769 61.8311001,109.864981 61.8311001,109.505204 C61.8311001,108.299951 61.5792563,107.225118 61.0755686,106.280703 C60.5718809,105.336289 59.8433326,104.589752 58.8899237,104.041092 C57.9365148,103.492432 56.7762342,103.218102 55.4090818,103.218102 C54.0779071,103.218102 52.8951404,103.496929 51.8607817,104.054583 C50.826423,104.612238 50.0214221,105.412741 49.445779,106.456094 C48.8701359,107.499448 48.5823144,108.758667 48.5823144,110.233752 C48.5823144,111.708838 48.8701359,112.968057 49.445779,114.01141 C50.0214221,115.054763 50.8354175,115.855267 51.887765,116.412921 C52.9401126,116.970576 54.1768458,117.249403 55.5979647,117.249403 Z M58.2865623,108.830622 L52.2369131,108.830622 L52.2531185,108.718912 C52.2833398,108.564567 52.3185979,108.416879 52.3588929,108.275846 L52.4948886,107.872716 C52.7467325,107.234112 53.120001,106.75291 53.6146943,106.429111 C54.1093876,106.105312 54.6985223,105.943412 55.3820985,105.943412 C56.3175186,105.943412 57.0415697,106.249223 57.5542518,106.860844 C57.9204533,107.297716 58.1558686,107.867668 58.2604976,108.570702 L58.2865623,108.830622 Z M84.886134,116.97957 L84.8839719,109.478221 L92.7361036,109.478221 L92.7382657,116.97957 L96.461957,116.97957 L96.461957,99.1706115 L92.7382657,99.1706115 L92.7361036,106.483078 L84.8839719,106.483078 L84.886134,99.1706115 L81.1624427,99.1706115 L81.1624427,116.97957 L84.886134,116.97957 Z M108.144096,117.249403 C108.881639,117.249403 109.596695,117.123481 110.289266,116.871637 C110.981836,116.619793 111.570971,116.255519 112.05667,115.778814 C112.15381,115.683474 112.243394,115.583995 112.325423,115.480379 L112.444684,115.303909 L112.454943,115.330892 C112.489482,115.437026 112.529777,115.538663 112.575828,115.635803 L112.731252,115.913731 C113.019073,116.354458 113.414828,116.682754 113.918516,116.89862 C114.422203,117.114486 114.988852,117.222419 115.618462,117.222419 C116.320027,117.222419 116.904664,117.105492 117.372374,116.871637 L117.372374,116.871637 L117.58824,114.578059 C117.318408,114.668003 117.030586,114.712975 116.724776,114.712975 C116.077177,114.712975 115.753378,114.371187 115.753378,113.687611 L115.753378,113.687611 L115.753378,108.210007 C115.753378,107.094699 115.506031,106.168273 115.011338,105.43073 C114.516645,104.693187 113.828571,104.14003 112.947118,103.771259 C112.065664,103.402488 111.031306,103.218102 109.844042,103.218102 C108.099124,103.218102 106.709485,103.577879 105.675127,104.297433 C104.640768,105.016987 103.970683,105.970396 103.664873,107.15766 L103.664873,107.15766 L106.821916,108.129057 C107.055771,107.337548 107.424542,106.770899 107.92823,106.429111 C108.431917,106.087323 109.016555,105.916429 109.682142,105.916429 C110.401696,105.916429 110.981836,106.132295 111.422563,106.564028 C111.86329,106.99576 112.083653,107.598386 112.083653,108.371907 L112.083653,108.371907 L112.083108,108.889985 L107.442531,109.829003 C106.409457,110.02945 105.581236,110.378581 104.957867,110.876395 L104.663254,111.137692 C104.015655,111.776296 103.691856,112.599286 103.691856,113.606661 C103.691856,114.39817 103.871745,115.063758 104.231522,115.603423 C104.591299,116.143089 105.103981,116.552335 105.769568,116.831162 C106.435155,117.109989 107.226665,117.249403 108.144096,117.249403 Z M109.08851,114.632025 C108.6208,114.632025 108.220548,114.515098 107.887755,114.281243 C107.554961,114.047388 107.388564,113.7056 107.388564,113.255879 C107.388564,112.788169 107.545967,112.450878 107.860771,112.244006 C108.175576,112.037134 108.638789,111.870737 109.25041,111.744815 L109.25041,111.744815 L112.083108,111.178167 L112.083653,112.014648 C112.083653,112.378922 112.038119,112.702722 111.94705,112.986046 L111.840804,113.255879 C111.678904,113.597667 111.454044,113.867499 111.166222,114.065377 C110.878401,114.263254 110.554601,114.407165 110.194824,114.497109 C109.835047,114.587053 109.466276,114.632025 109.08851,114.632025 Z M127.356184,122.646057 L127.35564,114.650914 L127.375672,114.691988 C127.602032,115.138711 127.890228,115.542711 128.240261,115.903987 L128.610906,116.251022 C129.393421,116.916609 130.378311,117.249403 131.565574,117.249403 C132.680883,117.249403 133.674767,116.970576 134.547226,116.412921 C135.419685,115.855267 136.107758,115.050266 136.611446,113.997919 C137.115134,112.945571 137.366978,111.681855 137.366978,110.206769 C137.366978,108.731684 137.119631,107.476962 136.624938,106.442603 C136.130244,105.408244 135.451165,104.612238 134.587701,104.054583 C133.724236,103.496929 132.743844,103.218102 131.646524,103.218102 C130.801048,103.218102 130.036522,103.393493 129.352946,103.744276 C128.66937,104.095058 128.107219,104.57626 127.666492,105.187881 C127.490201,105.432529 127.336217,105.691568 127.204538,105.964999 L127.12898,106.145787 L126.978419,103.487935 L123.659476,103.487935 L123.659476,122.646057 L127.356184,122.646057 Z M130.486244,114.416159 C129.856634,114.416159 129.303477,114.249762 128.826773,113.916969 C128.350068,113.584175 127.985794,113.098476 127.73395,112.459872 C127.482106,111.821268 127.356184,111.079228 127.356184,110.233752 C127.356184,109.352299 127.491101,108.601264 127.760933,107.980649 C128.030766,107.360034 128.404035,106.88333 128.880739,106.550536 C129.357444,106.217742 129.910601,106.051345 130.54021,106.051345 C131.529597,106.051345 132.29862,106.406625 132.84728,107.117185 C133.39594,107.827744 133.67027,108.8666 133.67027,110.233752 C133.67027,111.600905 133.386945,112.639761 132.820297,113.35032 C132.253648,114.06088 131.47563,114.416159 130.486244,114.416159 Z M148.052353,122.646057 L148.051808,114.650914 L148.071841,114.691988 C148.2982,115.138711 148.586397,115.542711 148.93643,115.903987 L149.307075,116.251022 C150.08959,116.916609 151.074479,117.249403 152.261743,117.249403 C153.377051,117.249403 154.370935,116.970576 155.243394,116.412921 C156.115853,115.855267 156.803927,115.050266 157.307614,113.997919 C157.811302,112.945571 158.063146,111.681855 158.063146,110.206769 C158.063146,108.731684 157.815799,107.476962 157.321106,106.442603 C156.826413,105.408244 156.147334,104.612238 155.283869,104.054583 C154.420404,103.496929 153.440012,103.218102 152.342693,103.218102 C151.497217,103.218102 150.732691,103.393493 150.049115,103.744276 C149.365539,104.095058 148.803387,104.57626 148.36266,105.187881 C148.18637,105.432529 148.032385,105.691568 147.900707,105.964999 L147.825148,106.145787 L147.674587,103.487935 L144.355645,103.487935 L144.355645,122.646057 L148.052353,122.646057 Z M151.182412,114.416159 C150.552802,114.416159 149.999645,114.249762 149.522941,113.916969 C149.046236,113.584175 148.681962,113.098476 148.430118,112.459872 C148.178275,111.821268 148.052353,111.079228 148.052353,110.233752 C148.052353,109.352299 148.187269,108.601264 148.457102,107.980649 C148.726934,107.360034 149.100203,106.88333 149.576907,106.550536 C150.053612,106.217742 150.606769,106.051345 151.236379,106.051345 C152.225765,106.051345 152.994788,106.406625 153.543448,107.117185 C154.092108,107.827744 154.366438,108.8666 154.366438,110.233752 C154.366438,111.600905 154.083114,112.639761 153.516465,113.35032 C152.949816,114.06088 152.171799,114.416159 151.182412,114.416159 Z M165.915278,122.780973 C166.868687,122.780973 167.691676,122.619073 168.384247,122.295274 C169.076818,121.971475 169.688438,121.449798 170.219109,120.730245 C170.74978,120.010691 171.230982,119.039293 171.662714,117.816051 L171.662714,117.816051 L177.113335,103.487935 L173.36266,103.487935 L170.907183,111.421016 L170.070701,114.281243 L169.369136,111.582916 L166.805726,103.487935 L162.704268,103.487935 L166.832709,113.660628 L168.316789,117.168453 L167.858073,118.328733 C167.606229,118.976332 167.295922,119.408064 166.92715,119.62393 C166.558379,119.839797 166.122149,119.94773 165.618462,119.94773 C165.132763,119.94773 164.701031,119.889266 164.323265,119.772338 C163.945499,119.655411 163.585722,119.462031 163.243934,119.192198 L163.243934,119.192198 L162.461419,121.863542 C162.893151,122.133375 163.401336,122.353738 163.985974,122.524632 C164.570611,122.695526 165.213713,122.780973 165.915278,122.780973 Z M182.905034,117.222419 C183.624588,117.222419 184.195734,117.029039 184.618472,116.642279 C185.04121,116.255519 185.252579,115.720351 185.252579,115.036774 C185.252579,114.371187 185.04121,113.840516 184.618472,113.444762 C184.195734,113.049007 183.624588,112.85113 182.905034,112.85113 C182.18548,112.85113 181.614335,113.049007 181.191597,113.444762 C180.768859,113.840516 180.55749,114.371187 180.55749,115.036774 C180.55749,115.720351 180.768859,116.255519 181.191597,116.642279 C181.614335,117.029039 182.18548,117.222419 182.905034,117.222419 Z M205.857537,116.97957 L207.320561,112.635263 L214.190502,112.635263 L215.652464,116.97957 L219.511072,116.97957 L213.008104,99.1706115 L208.555864,99.1706115 L202.052896,116.97957 L205.857537,116.97957 Z M213.264976,109.88297 L208.246087,109.88297 L209.958994,104.810115 L210.714526,102.165755 L210.768492,102.165755 L211.57799,104.864082 L213.264976,109.88297 Z M231.465204,117.249403 C232.580513,117.249403 233.560905,117.078509 234.406381,116.736721 C235.251856,116.394932 235.944427,115.918228 236.484092,115.306607 C237.023758,114.694986 237.392529,113.984427 237.590406,113.174929 L237.590406,113.174929 L234.244481,112.095598 C234.154537,112.599286 233.98814,113.031018 233.74529,113.390795 C233.502441,113.750572 233.192133,114.024902 232.814368,114.213785 C232.436602,114.402668 231.977886,114.497109 231.438221,114.497109 C230.772633,114.497109 230.192493,114.344204 229.6978,114.038393 C229.203107,113.732583 228.825341,113.264873 228.564503,112.635263 C228.303664,112.005654 228.173245,111.214145 228.173245,110.260736 C228.173245,109.307327 228.299167,108.51132 228.551011,107.872716 C228.802855,107.234112 229.171626,106.757408 229.657325,106.442603 C230.143024,106.127798 230.727661,105.970396 231.411238,105.970396 C232.14878,105.970396 232.733418,106.177267 233.16515,106.591011 C233.596882,107.004754 233.902693,107.616375 234.082581,108.425873 L234.082581,108.425873 L237.53644,107.184643 C237.320574,106.4471 236.9563,105.777016 236.443617,105.174389 C235.930935,104.571763 235.256354,104.095058 234.419872,103.744276 C233.583391,103.393493 232.562524,103.218102 231.357271,103.218102 C230.008107,103.218102 228.811849,103.496929 227.768496,104.054583 C226.725143,104.612238 225.915645,105.412741 225.340002,106.456094 C224.764359,107.499448 224.476537,108.758667 224.476537,110.233752 C224.476537,111.708838 224.764359,112.968057 225.340002,114.01141 C225.915645,115.054763 226.734137,115.855267 227.795479,116.412921 C228.856821,116.970576 230.080063,117.249403 231.465204,117.249403 Z M247.929857,116.97957 L247.929857,109.855987 C247.929857,108.956544 248.078265,108.232493 248.375081,107.683833 C248.671897,107.135173 249.058658,106.739419 249.535362,106.496569 C250.012066,106.25372 250.511257,106.132295 251.032934,106.132295 C251.734499,106.132295 252.310142,106.352659 252.759863,106.793385 C253.209584,107.234112 253.434445,108.039113 253.434445,109.208388 L253.434445,109.208388 L253.434445,116.97957 L257.131153,116.97957 L257.131153,108.129057 C257.131153,107.031738 256.919784,106.118804 256.497046,105.390255 C256.074308,104.661707 255.498665,104.117544 254.770117,103.757767 C254.041568,103.397991 253.209584,103.218102 252.274164,103.218102 C251.320755,103.218102 250.466285,103.429471 249.710753,103.852209 C248.955222,104.274947 248.36159,104.918048 247.929857,105.781513 L247.929857,105.781513 L247.929857,97.5785985 L244.233149,97.5785985 L244.233149,116.97957 L247.929857,116.97957 Z M266.585551,101.545139 C267.359071,101.545139 267.934715,101.378742 268.31248,101.045949 C268.690246,100.713155 268.879129,100.222959 268.879129,99.5753605 C268.879129,98.9097732 268.690246,98.4105827 268.31248,98.077789 C267.934715,97.7449954 267.359071,97.5785985 266.585551,97.5785985 C265.812031,97.5785985 265.236388,97.7449954 264.858622,98.077789 C264.480856,98.4105827 264.291973,98.9097732 264.291973,99.5753605 C264.291973,100.222959 264.480856,100.713155 264.858622,101.045949 C265.236388,101.378742 265.812031,101.545139 266.585551,101.545139 Z M268.420413,116.97957 L268.420413,103.487935 L264.723705,103.487935 L264.723705,116.97957 L268.420413,116.97957 Z M282.36969,117.249403 C283.287122,117.249403 284.146089,117.118984 284.946593,116.858145 C285.747096,116.597307 286.439667,116.215044 287.024305,115.711356 C287.608942,115.207669 288.045172,114.605042 288.332993,113.903477 L288.332993,113.903477 L285.391817,112.77018 C285.121984,113.309845 284.744218,113.732583 284.258519,114.038393 C283.77282,114.344204 283.134216,114.497109 282.342707,114.497109 C281.623153,114.497109 281.007035,114.344204 280.494353,114.038393 C279.981671,113.732583 279.585916,113.26937 279.307089,112.648755 C279.195558,112.400509 279.106334,112.125639 279.039415,111.824146 L278.963842,111.394033 L288.494893,111.394033 C288.518878,111.226137 288.538866,111.042251 288.554856,110.842375 L288.575843,110.530568 C288.593831,110.206769 288.602826,109.864981 288.602826,109.505204 C288.602826,108.299951 288.350982,107.225118 287.847294,106.280703 C287.343607,105.336289 286.615058,104.589752 285.661649,104.041092 C284.708241,103.492432 283.54796,103.218102 282.180808,103.218102 C280.849633,103.218102 279.666866,103.496929 278.632507,104.054583 C277.598149,104.612238 276.793148,105.412741 276.217505,106.456094 C275.641862,107.499448 275.35404,108.758667 275.35404,110.233752 C275.35404,111.708838 275.641862,112.968057 276.217505,114.01141 C276.793148,115.054763 277.607143,115.855267 278.659491,116.412921 C279.711838,116.970576 280.948572,117.249403 282.36969,117.249403 Z M285.059363,108.830622 L279.007016,108.830622 L279.024844,108.718912 C279.055066,108.564567 279.090324,108.416879 279.130619,108.275846 L279.266614,107.872716 C279.518458,107.234112 279.891727,106.75291 280.38642,106.429111 C280.881113,106.105312 281.470248,105.943412 282.153824,105.943412 C283.089244,105.943412 283.813295,106.249223 284.325978,106.860844 C284.692179,107.297716 284.927594,107.867668 285.032223,108.570702 L285.059363,108.830622 Z M302.634126,116.97957 L307.760948,103.487935 L303.929323,103.487935 L300.529431,114.146327 L297.210489,103.487935 L293.243948,103.487935 L298.37077,116.97957 L302.634126,116.97957 Z M319.683245,117.249403 C320.600676,117.249403 321.459644,117.118984 322.260147,116.858145 C323.060651,116.597307 323.753222,116.215044 324.337859,115.711356 C324.922497,115.207669 325.358726,114.605042 325.646548,113.903477 L325.646548,113.903477 L322.705371,112.77018 C322.435539,113.309845 322.057773,113.732583 321.572074,114.038393 C321.086375,114.344204 320.447771,114.497109 319.656262,114.497109 C318.936708,114.497109 318.32059,114.344204 317.807908,114.038393 C317.295226,113.732583 316.899471,113.26937 316.620644,112.648755 C316.509113,112.400509 316.419888,112.125639 316.35297,111.824146 L316.276309,111.394033 L325.808447,111.394033 C325.832433,111.226137 325.85242,111.042251 325.86841,110.842375 L325.889397,110.530568 C325.907386,110.206769 325.91638,109.864981 325.91638,109.505204 C325.91638,108.299951 325.664537,107.225118 325.160849,106.280703 C324.657161,105.336289 323.928613,104.589752 322.975204,104.041092 C322.021795,103.492432 320.861514,103.218102 319.494362,103.218102 C318.163187,103.218102 316.980421,103.496929 315.946062,104.054583 C314.911703,104.612238 314.106702,105.412741 313.531059,106.456094 C312.955416,107.499448 312.667595,108.758667 312.667595,110.233752 C312.667595,111.708838 312.955416,112.968057 313.531059,114.01141 C314.106702,115.054763 314.920698,115.855267 315.973045,116.412921 C317.025393,116.970576 318.262126,117.249403 319.683245,117.249403 Z M322.371829,108.830622 L316.32218,108.830622 L316.338399,108.718912 C316.36862,108.564567 316.403878,108.416879 316.444173,108.275846 L316.580169,107.872716 C316.832013,107.234112 317.205281,106.75291 317.699975,106.429111 C318.194668,106.105312 318.783803,105.943412 319.467379,105.943412 C320.402799,105.943412 321.12685,106.249223 321.639532,106.860844 C322.005734,107.297716 322.241149,107.867668 322.345778,108.570702 L322.371829,108.830622 Z M348.620632,116.97957 L348.620632,107.697325 L348.431749,102.489554 L348.485715,102.489554 L353.396671,116.97957 L356.44578,116.97957 L361.383719,102.489554 L361.437685,102.489554 L361.275786,107.697325 L361.275786,116.97957 L364.621711,116.97957 L364.621711,99.1706115 L359.386957,99.1706115 L356.202931,108.911572 L355.04265,112.905096 L354.988684,112.905096 L353.855386,108.884589 L350.644377,99.1706115 L345.247723,99.1706115 L345.247723,116.97957 L348.620632,116.97957 Z M378.672452,117.249403 C380.039604,117.249403 381.24036,116.970576 382.274719,116.412921 C383.309077,115.855267 384.118575,115.050266 384.703213,113.997919 C385.287851,112.945571 385.580169,111.690849 385.580169,110.233752 C385.580169,108.758667 385.287851,107.499448 384.703213,106.456094 C384.118575,105.412741 383.309077,104.612238 382.274719,104.054583 C381.24036,103.496929 380.039604,103.218102 378.672452,103.218102 C377.323289,103.218102 376.12703,103.496929 375.083677,104.054583 C374.040324,104.612238 373.226329,105.412741 372.641691,106.456094 C372.057054,107.499448 371.764735,108.758667 371.764735,110.233752 C371.764735,111.690849 372.057054,112.945571 372.641691,113.997919 C373.226329,115.050266 374.040324,115.855267 375.083677,116.412921 C376.12703,116.970576 377.323289,117.249403 378.672452,117.249403 Z M378.672452,114.497109 C377.988876,114.497109 377.408736,114.339707 376.932031,114.024902 C376.455327,113.710097 376.091053,113.23789 375.839209,112.60828 C375.587365,111.97867 375.461443,111.187161 375.461443,110.233752 C375.461443,109.280343 375.587365,108.488834 375.839209,107.859225 C376.091053,107.229615 376.455327,106.757408 376.932031,106.442603 C377.408736,106.127798 377.988876,105.970396 378.672452,105.970396 C379.338039,105.970396 379.909185,106.127798 380.38589,106.442603 C380.862594,106.757408 381.226868,107.229615 381.478712,107.859225 C381.730556,108.488834 381.856478,109.280343 381.856478,110.233752 C381.856478,111.187161 381.730556,111.97867 381.478712,112.60828 C381.226868,113.23789 380.862594,113.710097 380.38589,114.024902 C379.909185,114.339707 379.338039,114.497109 378.672452,114.497109 Z M396.164087,116.97957 L396.164087,109.990903 C396.164087,109.181405 396.325987,108.51132 396.649786,107.980649 C396.973585,107.449978 397.387329,107.054224 397.891016,106.793385 C398.394704,106.532547 398.916381,106.402128 399.456046,106.402128 C399.869789,106.402128 400.20708,106.420117 400.467919,106.456094 C400.728757,106.492072 400.94912,106.546039 401.129009,106.617994 L401.129009,106.617994 L401.560741,103.514918 C401.398841,103.424974 401.19197,103.353018 400.940126,103.299052 C400.688282,103.245085 400.409455,103.218102 400.103644,103.218102 C399.060291,103.218102 398.192329,103.469946 397.499759,103.973634 C396.807188,104.477321 396.281015,105.196875 395.921238,106.132295 L395.921238,106.132295 L395.678388,103.487935 L392.467379,103.487935 L392.467379,116.97957 L396.164087,116.97957 Z M413.613633,117.249403 C414.531064,117.249403 415.390032,117.118984 416.190535,116.858145 C416.991039,116.597307 417.68361,116.215044 418.268247,115.711356 C418.852885,115.207669 419.289114,114.605042 419.576936,113.903477 L419.576936,113.903477 L416.635759,112.77018 C416.365927,113.309845 415.988161,113.732583 415.502462,114.038393 C415.016763,114.344204 414.378159,114.497109 413.58665,114.497109 C412.867096,114.497109 412.250978,114.344204 411.738296,114.038393 C411.225614,113.732583 410.829859,113.26937 410.551032,112.648755 C410.439501,112.400509 410.350276,112.125639 410.283358,111.824146 L410.207771,111.394033 L419.738835,111.394033 C419.762821,111.226137 419.782808,111.042251 419.798798,110.842375 L419.819785,110.530568 C419.837774,110.206769 419.846768,109.864981 419.846768,109.505204 C419.846768,108.299951 419.594925,107.225118 419.091237,106.280703 C418.587549,105.336289 417.859001,104.589752 416.905592,104.041092 C415.952183,103.492432 414.791903,103.218102 413.42475,103.218102 C412.093575,103.218102 410.910809,103.496929 409.87645,104.054583 C408.842091,104.612238 408.03709,105.412741 407.461447,106.456094 C406.885804,107.499448 406.597983,108.758667 406.597983,110.233752 C406.597983,111.708838 406.885804,112.968057 407.461447,114.01141 C408.03709,115.054763 408.851086,115.855267 409.903433,116.412921 C410.955781,116.970576 412.192514,117.249403 413.613633,117.249403 Z M416.303292,108.830622 L410.250944,108.830622 L410.268787,108.718912 C410.299008,108.564567 410.334266,108.416879 410.374561,108.275846 L410.510557,107.872716 C410.762401,107.234112 411.135669,106.75291 411.630363,106.429111 C412.125056,106.105312 412.714191,105.943412 413.397767,105.943412 C414.333187,105.943412 415.057238,106.249223 415.56992,106.860844 C415.936122,107.297716 416.171537,107.867668 416.276166,108.570702 L416.303292,108.830622 Z M428.616331,117.222419 C429.335885,117.222419 429.907031,117.029039 430.329769,116.642279 C430.752507,116.255519 430.963876,115.720351 430.963876,115.036774 C430.963876,114.371187 430.752507,113.840516 430.329769,113.444762 C429.907031,113.049007 429.335885,112.85113 428.616331,112.85113 C427.896777,112.85113 427.325632,113.049007 426.902894,113.444762 C426.480156,113.840516 426.268787,114.371187 426.268787,115.036774 C426.268787,115.720351 426.480156,116.255519 426.902894,116.642279 C427.325632,117.029039 427.896777,117.222419 428.616331,117.222419 Z" id="LiveHappy.AchieveMore." fill="#FF8900" fill-rule="nonzero"></path>
            </g>
        </g>
    </g>
</svg>