<?xml version="1.0" encoding="UTF-8"?>
<svg width="20px" height="20px" viewBox="0 0 20 20" version="1.1" xmlns="http://www.w3.org/2000/svg" xmlns:xlink="http://www.w3.org/1999/xlink">
    <!-- Generator: Sketch 64 (93537) - https://sketch.com -->
    <title>squares</title>
    <desc>Created with Sketch.</desc>
    <g id="Symbols" stroke="none" stroke-width="1" fill="none" fill-rule="evenodd">
        <g id="Grid-Views" fill="#FFFFFF" fill-rule="nonzero">
            <g id="squares">
                <path d="M8.92539964,0.444049734 C8.92539964,0.198712256 8.72668739,0 8.48134991,0 L0.444049734,0 C0.198712256,0 0,0.198712256 0,0.444049734 L0,8.48134991 C0,8.72668739 0.198712256,8.92539964 0.444049734,8.92539964 L8.48134991,8.92539964 C8.72668739,8.92539964 8.92539964,8.72668739 8.92539964,8.48134991 L8.92539964,0.444049734 Z M8.03730018,8.03730018 L0.888099467,8.03730018 L0.888099467,0.888099467 L8.03730018,0.888099467 L8.03730018,8.03730018 Z" id="Shape"></path>
                <path d="M19.982238,0.444049734 C19.982238,0.198712256 19.7835258,0 19.5381883,0 L11.5008881,0 C11.2555506,0 11.0568384,0.198712256 11.0568384,0.444049734 L11.0568384,8.48134991 C11.0568384,8.72668739 11.2555506,8.92539964 11.5008881,8.92539964 L19.5381883,8.92539964 C19.7835258,8.92539964 19.982238,8.72668739 19.982238,8.48134991 L19.982238,0.444049734 Z M19.0941385,8.03730018 L11.9449378,8.03730018 L11.9449378,0.888099467 L19.0941385,0.888099467 L19.0941385,8.03730018 Z" id="Shape"></path>
                <path d="M8.92539964,11.5008881 C8.92539964,11.2555506 8.72668739,11.0568384 8.48134991,11.0568384 L0.444049734,11.0568384 C0.198712256,11.0568384 0,11.2555506 0,11.5008881 L0,19.5381883 C0,19.7835258 0.198712256,19.982238 0.444049734,19.982238 L8.48134991,19.982238 C8.72668739,19.982238 8.92539964,19.7835258 8.92539964,19.5381883 L8.92539964,11.5008881 Z M8.03730018,19.0497336 L0.888099467,19.0497336 L0.888099467,11.9449378 L8.03730018,11.9449378 L8.03730018,19.0497336 Z" id="Shape"></path>
                <path d="M19.982238,11.5008881 C19.982238,11.2555506 19.7835258,11.0568384 19.5381883,11.0568384 L11.5008881,11.0568384 C11.2555506,11.0568384 11.0568384,11.2555506 11.0568384,11.5008881 L11.0568384,19.5381883 C11.0568384,19.7835258 11.2555506,19.982238 11.5008881,19.982238 L19.5381883,19.982238 C19.7835258,19.982238 19.982238,19.7835258 19.982238,19.5381883 L19.982238,11.5008881 Z M19.0941385,19.0497336 L11.9449378,19.0497336 L11.9449378,11.9449378 L19.0941385,11.9449378 L19.0941385,19.0497336 Z" id="Shape"></path>
            </g>
        </g>
    </g>
</svg>